<svg width="24" height="16" viewBox="0 0 24 16" fill="none" xmlns="http://www.w3.org/2000/svg">
<g clip-path="url(#clip0_18722_31832)">
<path d="M0 2C0 0.895431 0.895431 0 2 0H22C23.1046 0 24 0.895431 24 2V14C24 15.1046 23.1046 16 22 16H2C0.89543 16 0 15.1046 0 14V2Z" fill="white"/>
<path d="M14.5044 3.26369L9.33984 3.28145L9.49634 12.7364L14.6609 12.7186L14.5044 3.26369Z" fill="#FF5F00"/>
<path d="M9.6798 8.02798C9.64784 6.10492 10.5093 4.39621 11.8586 3.28786C10.8401 2.48864 9.56328 2.00804 8.17913 2.01278C4.90002 2.02401 2.29181 4.72537 2.34711 8.05309C2.40241 11.3808 5.1001 14.064 8.37922 14.0528C9.76336 14.048 11.0241 13.5587 12.0159 12.7526C10.6302 11.6704 9.71176 9.95103 9.6798 8.02798Z" fill="#EB001B"/>
<path d="M21.6531 7.94694C21.7084 11.2747 19.1002 13.976 15.8211 13.9873C14.4369 13.992 13.1601 13.5114 12.1416 12.7122C13.5074 11.6038 14.3524 9.89511 14.3204 7.97206C14.2885 6.049 13.3703 4.34639 11.9843 3.24741C12.9761 2.4413 14.2369 1.95201 15.621 1.94726C18.9001 1.93603 21.5981 4.63595 21.6531 7.94694Z" fill="#F79E1B"/>
</g>
<defs>
<clipPath id="clip0_18722_31832">
<rect width="24" height="16" fill="white"/>
</clipPath>
</defs>
</svg>
