<svg width="33" height="32" viewBox="0 0 33 32" fill="none" xmlns="http://www.w3.org/2000/svg">
<path fill-rule="evenodd" clip-rule="evenodd" d="M19.167 8.99984C17.4526 8.99984 16.167 10.2855 16.167 11.9998V17.3998H13.5003V18.7332H16.167V28.3332H18.167V18.5998H21.6328L21.9135 17.2665H18.167V12.3998C18.167 12.1124 18.2395 11.7131 18.5599 11.3927C18.8802 11.0724 19.2795 10.9998 19.567 10.9998H22.167V8.99984H19.167ZM14.167 11.9998C14.167 9.18089 16.348 6.99984 19.167 6.99984H22.767C23.0545 6.99984 23.4538 7.07238 23.7741 7.39273C24.0944 7.71308 24.167 8.11236 24.167 8.39984V11.5998C24.167 11.8873 24.0944 12.2866 23.7741 12.6069C23.4538 12.9273 23.0545 12.9998 22.767 12.9998H20.167V15.2665H22.6337C23.1549 15.2665 23.5454 15.548 23.7657 15.8785C23.9663 16.1793 24.0337 16.5182 24.0337 16.7998V16.904L23.4894 19.489C23.449 19.7755 23.3048 19.9792 23.2123 20.086C23.0952 20.2211 22.9651 20.3138 22.8648 20.374C22.6929 20.4772 22.4129 20.5998 22.1003 20.5998H20.167V30.3332H14.167V20.7332H12.9003C12.6128 20.7332 12.2136 20.6606 11.8932 20.3403C11.5729 20.0199 11.5003 19.6206 11.5003 19.3332V16.7998C11.5003 16.5124 11.5729 16.1131 11.8932 15.7927C12.2136 15.4724 12.6128 15.3998 12.9003 15.3998H14.167V11.9998Z" fill="#C0C5C9"/>
<path fill-rule="evenodd" clip-rule="evenodd" d="M6.04077 5.54028C4.82006 6.76099 4.16699 8.76513 4.16699 11.9998V19.9998C4.16699 23.2345 4.82006 25.2387 6.04077 26.4594C7.26147 27.6801 9.26562 28.3332 12.5003 28.3332H20.5003C23.735 28.3332 25.7392 27.6801 26.9599 26.4594C28.1806 25.2387 28.8337 23.2345 28.8337 19.9998V11.9998C28.8337 8.76513 28.1806 6.76099 26.9599 5.54028C25.7392 4.31957 23.735 3.6665 20.5003 3.6665H12.5003C9.26562 3.6665 7.26147 4.31957 6.04077 5.54028ZM4.62655 4.12606C6.40584 2.34677 9.06836 1.6665 12.5003 1.6665H20.5003C23.9323 1.6665 26.5948 2.34677 28.3741 4.12606C30.1534 5.90536 30.8337 8.56787 30.8337 11.9998V19.9998C30.8337 23.4318 30.1534 26.0943 28.3741 27.8736C26.5948 29.6529 23.9323 30.3332 20.5003 30.3332H12.5003C9.06836 30.3332 6.40584 29.6529 4.62655 27.8736C2.84726 26.0943 2.16699 23.4318 2.16699 19.9998V11.9998C2.16699 8.56787 2.84726 5.90536 4.62655 4.12606Z" fill="#C0C5C9"/>
</svg>
