<svg width="33" height="32" viewBox="0 0 33 32" fill="none" xmlns="http://www.w3.org/2000/svg">
<path fill-rule="evenodd" clip-rule="evenodd" d="M4.62655 4.12606C6.40584 2.34677 9.06836 1.6665 12.5003 1.6665H20.5003C23.9323 1.6665 26.5948 2.34677 28.3741 4.12606C30.1534 5.90536 30.8337 8.56787 30.8337 11.9998V19.9998C30.8337 23.4318 30.1534 26.0943 28.3741 27.8736C26.5948 29.6529 23.9323 30.3332 20.5003 30.3332H12.5003C9.06836 30.3332 6.40584 29.6529 4.62655 27.8736C2.84726 26.0943 2.16699 23.4318 2.16699 19.9998V11.9998C2.16699 8.56787 2.84726 5.90536 4.62655 4.12606ZM6.04077 5.54028C4.82006 6.76099 4.16699 8.76513 4.16699 11.9998V19.9998C4.16699 23.2345 4.82006 25.2387 6.04077 26.4594C7.26147 27.6801 9.26562 28.3332 12.5003 28.3332H20.5003C23.735 28.3332 25.7392 27.6801 26.9599 26.4594C28.1806 25.2387 28.8337 23.2345 28.8337 19.9998V11.9998C28.8337 8.76513 28.1806 6.76099 26.9599 5.54028C25.7392 4.31957 23.735 3.6665 20.5003 3.6665H12.5003C9.26562 3.6665 7.26147 4.31957 6.04077 5.54028Z" fill="#C0C5C9"/>
<path fill-rule="evenodd" clip-rule="evenodd" d="M16.5003 12.3332C14.4753 12.3332 12.8337 13.9748 12.8337 15.9998C12.8337 18.0249 14.4753 19.6665 16.5003 19.6665C18.5254 19.6665 20.167 18.0249 20.167 15.9998C20.167 13.9748 18.5254 12.3332 16.5003 12.3332ZM10.8337 15.9998C10.8337 12.8702 13.3707 10.3332 16.5003 10.3332C19.6299 10.3332 22.167 12.8702 22.167 15.9998C22.167 19.1295 19.6299 21.6665 16.5003 21.6665C13.3707 21.6665 10.8337 19.1295 10.8337 15.9998Z" fill="#C0C5C9"/>
<path fill-rule="evenodd" clip-rule="evenodd" d="M22.6818 9.33317C22.6818 8.59679 23.2788 7.99984 24.0152 7.99984H24.0306C24.7669 7.99984 25.3639 8.59679 25.3639 9.33317C25.3639 10.0696 24.7669 10.6665 24.0306 10.6665H24.0152C23.2788 10.6665 22.6818 10.0696 22.6818 9.33317Z" fill="#C0C5C9"/>
</svg>
