<svg width="33" height="32" viewBox="0 0 33 32" fill="none" xmlns="http://www.w3.org/2000/svg">
<path fill-rule="evenodd" clip-rule="evenodd" d="M26.8175 5.44632L4.34074 14.1442C2.80926 14.7432 2.83178 15.6079 4.08174 15.9979L8.64603 17.4307C9.3937 17.6654 10.2068 17.5594 10.8692 17.1408L23.169 9.36854C23.2941 9.28444 23.4167 9.22638 23.5294 9.19059L23.5332 9.18937C23.9861 9.04721 24.2745 9.26595 23.9009 9.60026L13.1017 19.3945L11.3754 19.1351C11.624 19.1724 12.1183 19.2467 13.1017 19.3945C13.1017 19.3945 12.7883 21.4802 12.631 23.1833C12.6258 23.2402 12.6207 23.2966 12.6158 23.3525C12.6146 23.367 12.6133 23.3815 12.6121 23.3959C12.6095 23.4255 12.607 23.455 12.6046 23.4842C12.6033 23.4995 12.6021 23.5147 12.6008 23.5298C12.5177 24.5514 12.5078 25.3579 12.6851 25.3513C13.1663 25.3333 13.5465 25.0913 13.8562 24.7805L15.0429 23.6347C15.9797 22.7302 17.4328 22.6345 18.48 23.4084L22.4933 26.3742C23.5631 26.9733 24.3176 26.6568 24.6047 25.3796L28.4278 7.27744C28.7656 5.67803 27.8591 5.05636 26.8175 5.44632ZM30.3846 7.69076L26.5589 25.8056L26.556 25.8182C26.3571 26.7032 25.8704 27.8521 24.6746 28.3992C23.4667 28.9519 22.2855 28.5501 21.5161 28.1193L21.4061 28.0576L17.2914 25.0169C17.0296 24.8234 16.6663 24.8473 16.4321 25.0735L15.2574 26.2077C14.7443 26.718 13.9179 27.3067 12.7597 27.3499C11.4631 27.3983 10.9056 26.3647 10.7964 26.1296C10.6475 25.8089 10.6011 25.5055 10.5823 25.3642C10.5386 25.036 10.5391 24.6717 10.548 24.369C10.567 23.728 10.6416 22.9176 10.725 22.1606C10.8097 21.3911 10.9094 20.626 10.9874 20.0565C11.0265 19.7708 11.0604 19.5325 11.0847 19.365L11.1016 19.2491C10.1307 19.6179 9.05488 19.6553 8.04702 19.3389L3.4861 17.9071L3.4845 17.9066C3.00217 17.756 2.4576 17.5078 2.00697 17.0827C1.52649 16.6293 1.09535 15.9001 1.17572 14.9761C1.25059 14.1155 1.73633 13.5026 2.15311 13.1338C2.57994 12.7562 3.09512 12.4838 3.61216 12.2816L3.61895 12.2789L26.106 3.57713L26.1163 3.57328C27.1043 3.20339 28.4931 3.16731 29.5358 4.18356C30.5453 5.16735 30.6241 6.55689 30.3846 7.69076Z" fill="#C0C5C9"/>
</svg>
