<svg width="33" height="32" viewBox="0 0 33 32" fill="none" xmlns="http://www.w3.org/2000/svg">
<path fill-rule="evenodd" clip-rule="evenodd" d="M4.62655 4.12606C6.40584 2.34677 9.06836 1.6665 12.5003 1.6665H20.5003C23.9323 1.6665 26.5948 2.34677 28.3741 4.12606C30.1534 5.90536 30.8337 8.56787 30.8337 11.9998V19.9998C30.8337 23.4318 30.1534 26.0943 28.3741 27.8736C26.5948 29.6529 23.9323 30.3332 20.5003 30.3332H12.5003C9.06836 30.3332 6.40584 29.6529 4.62655 27.8736C2.84726 26.0943 2.16699 23.4318 2.16699 19.9998V11.9998C2.16699 8.56787 2.84726 5.90536 4.62655 4.12606ZM6.04077 5.54028C4.82006 6.76099 4.16699 8.76513 4.16699 11.9998V19.9998C4.16699 23.2345 4.82006 25.2387 6.04077 26.4594C7.26147 27.6801 9.26562 28.3332 12.5003 28.3332H20.5003C23.735 28.3332 25.7392 27.6801 26.9599 26.4594C28.1806 25.2387 28.8337 23.2345 28.8337 19.9998V11.9998C28.8337 8.76513 28.1806 6.76099 26.9599 5.54028C25.7392 4.31957 23.735 3.6665 20.5003 3.6665H12.5003C9.26562 3.6665 7.26147 4.31957 6.04077 5.54028Z" fill="#C0C5C9"/>
<path fill-rule="evenodd" clip-rule="evenodd" d="M19.5165 11.2208C19.4671 11.1322 19.4104 11.0437 19.3454 10.9565C18.7481 10.1556 17.8889 9.99984 17.3576 9.99984H14.6071C13.8952 9.99984 13.2494 10.298 12.8005 10.7782C12.7633 10.7404 12.7245 10.7031 12.6837 10.6666C12.074 10.1197 11.3722 9.99984 10.8498 9.99984H9.10031C8.59099 9.99984 7.80467 10.1128 7.18261 10.7495C6.55962 11.3871 6.50033 12.1452 6.50033 12.4869C6.50033 12.8857 6.60139 13.3301 6.70006 13.6852C6.81505 14.0991 6.98664 14.5986 7.22604 15.166C7.70492 16.3011 8.46996 17.7432 9.64136 19.356C11.3797 21.8005 13.9735 23.3332 16.6031 23.3332C17.1577 23.3332 18.0257 23.3023 18.7456 22.8284C19.118 22.5833 19.3657 22.2892 19.5302 21.9941C19.6429 22.1163 19.7615 22.2425 19.8722 22.3515C20.0675 22.5438 20.3601 22.8084 20.7549 23.0116C21.1917 23.2365 21.6465 23.3332 22.104 23.3332H23.8535C24.3443 23.3332 25.2365 23.224 25.8987 22.4724C26.6378 21.6337 26.5561 20.6316 26.3748 20.0282L26.3679 20.0054L26.3605 19.9827C26.1665 19.3891 25.7845 18.8424 25.5077 18.4775C25.1938 18.0636 24.8305 17.6493 24.5017 17.2928C24.348 17.1261 24.1968 16.9667 24.0552 16.8199C24.2088 16.5943 24.3786 16.3408 24.5516 16.0751C24.8446 15.6246 25.1608 15.1175 25.4245 14.6413C25.6413 14.2498 25.9372 13.6816 26.0717 13.1366C26.187 12.7149 26.3246 11.8446 25.7427 11.0233C25.1029 10.1204 24.115 9.99984 23.607 9.99984H21.8575C21.2696 9.99984 20.6725 10.1599 20.1584 10.542C19.8762 10.7517 19.669 10.9913 19.5165 11.2208ZM17.8506 12.6328C17.8506 12.1953 17.7259 11.9998 17.3576 11.9998H14.6071C14.3279 11.9998 14.1616 12.204 14.1616 12.3936C14.1616 12.5517 14.2533 12.6634 14.3704 12.8061C14.4448 12.8967 14.5293 12.9997 14.6071 13.135C14.7192 13.3299 14.8171 13.5915 14.8502 13.9791C14.8508 13.986 14.8513 13.9929 14.8519 13.9998C14.8537 14.023 14.8553 14.0466 14.8566 14.0707V16.6023C14.8566 17.1565 14.7557 17.2586 14.5329 17.2586C14.3332 17.2586 14.0375 17.0166 13.7004 16.6023C13.542 16.4077 13.3745 16.175 13.2035 15.9114C13.0889 15.7348 12.9727 15.5443 12.8566 15.3421C12.4183 14.5782 11.982 13.6477 11.6399 12.6678C11.4676 12.1923 11.2983 11.9998 10.8498 11.9998H9.10031C8.60131 11.9998 8.50033 12.2303 8.50033 12.4869C8.50033 12.9419 9.09437 15.2023 11.2656 18.189C12.7121 20.2278 14.7497 21.3332 16.6031 21.3332C17.717 21.3332 17.8536 21.0882 17.8536 20.6653C17.8536 20.371 17.8513 20.1171 17.8493 19.8979C17.8382 18.6656 17.837 18.5332 18.311 18.5332C18.5464 18.5332 18.9369 18.6396 19.7899 19.4009C19.8085 19.4176 19.8274 19.4345 19.8465 19.4518C19.9131 19.5121 19.9824 19.5762 20.0546 19.6444C20.4083 19.9918 20.6741 20.282 20.8906 20.5184C21.401 21.0757 21.6368 21.3332 22.104 21.3332H23.8535C24.3525 21.3332 24.605 21.0882 24.4594 20.604C24.3699 20.33 24.1415 19.9779 23.8535 19.607C23.7899 19.5251 23.7234 19.4423 23.6549 19.3592C23.6477 19.3505 23.6405 19.3418 23.6334 19.3332C23.0845 18.6713 22.4114 17.9958 22.0443 17.6273C21.8953 17.4778 21.7967 17.3788 21.7773 17.3519C21.5189 17.0253 21.5932 16.8794 21.7773 16.5878C21.7793 16.5858 22.7854 15.1955 23.4877 13.9998C23.4896 13.9967 23.4914 13.9936 23.4932 13.9905C23.5322 13.9241 23.5702 13.8583 23.607 13.7935C23.8715 13.3273 24.0755 12.9068 24.1357 12.6328C24.2456 12.2682 24.1357 11.9998 23.607 11.9998H21.8575C21.412 11.9998 21.207 12.2303 21.0971 12.4869C21.0971 12.4869 20.6115 13.6488 19.8506 14.8133C19.7581 14.9549 19.6615 15.0966 19.5612 15.2362C19.3691 15.5037 19.1633 15.7637 18.9467 16.0015C18.9345 16.0134 18.9226 16.0251 18.9109 16.0365C18.5286 16.4086 18.346 16.5294 18.1298 16.5294C18.0199 16.5294 17.8506 16.4011 17.8506 16.0365V12.6328ZM23.2709 16.0234C23.2514 16.0029 23.2563 16.0069 23.2751 16.0278L23.2709 16.0234Z" fill="#C0C5C9"/>
</svg>
