<svg width="33" height="32" viewBox="0 0 33 32" fill="none" xmlns="http://www.w3.org/2000/svg">
<path fill-rule="evenodd" clip-rule="evenodd" d="M2.16699 15.9998C2.16699 8.11422 8.61471 1.6665 16.5003 1.6665C24.3859 1.6665 30.8337 8.11422 30.8337 15.9998C30.8337 23.8855 24.3859 30.3332 16.5003 30.3332C14.0716 30.3332 11.6437 29.6993 9.56743 28.5445L5.6857 29.6536C3.94955 30.1496 2.33207 28.5704 2.78643 26.8229L3.83598 22.7861C2.8093 20.7483 2.16699 18.4457 2.16699 15.9998ZM16.5003 3.6665C9.71928 3.6665 4.16699 9.21879 4.16699 15.9998C4.16699 18.2125 4.78155 20.3188 5.78268 22.1959C5.9008 22.4174 5.93131 22.6752 5.86815 22.9181L4.72207 27.3261C4.65716 27.5758 4.88824 27.8014 5.13625 27.7305L9.4256 26.505C9.69174 26.4289 9.97748 26.4666 10.2148 26.609C12.0576 27.7147 14.2795 28.3332 16.5003 28.3332C23.2814 28.3332 28.8337 22.7809 28.8337 15.9998C28.8337 9.21879 23.2814 3.6665 16.5003 3.6665Z" fill="#C0C5C9"/>
<path d="M22.5 19.798C22.5 20.014 22.4519 20.236 22.3498 20.452C22.2476 20.668 22.1154 20.872 21.9412 21.064C21.6467 21.388 21.3222 21.622 20.9557 21.772C20.5951 21.922 20.2046 22 19.7839 22C19.171 22 18.516 21.856 17.825 21.562C17.134 21.268 16.4429 20.872 15.7579 20.374C15.0669 19.87 14.4119 19.312 13.7869 18.694C13.168 18.07 12.6092 17.416 12.1104 16.732C11.6177 16.048 11.2211 15.364 10.9326 14.686C10.6442 14.002 10.5 13.348 10.5 12.724C10.5 12.316 10.5721 11.926 10.7163 11.566C10.8605 11.2 11.0889 10.864 11.4074 10.564C11.7919 10.186 12.2126 10 12.6572 10C12.8255 10 12.9937 10.036 13.144 10.108C13.3002 10.18 13.4384 10.288 13.5466 10.444L14.9407 12.406C15.0488 12.556 15.1269 12.694 15.181 12.826C15.2351 12.952 15.2651 13.078 15.2651 13.192C15.2651 13.336 15.2231 13.48 15.139 13.618C15.0608 13.756 14.9467 13.9 14.8025 14.044L14.3458 14.518C14.2797 14.584 14.2496 14.662 14.2496 14.758C14.2496 14.806 14.2556 14.848 14.2677 14.896C14.2857 14.944 14.3037 14.98 14.3157 15.016C14.4239 15.214 14.6102 15.472 14.8746 15.784C15.145 16.096 15.4334 16.414 15.7459 16.732C16.0704 17.05 16.3828 17.344 16.7013 17.614C17.0138 17.878 17.2722 18.058 17.4765 18.166C17.5065 18.178 17.5426 18.196 17.5846 18.214C17.6327 18.232 17.6808 18.238 17.7349 18.238C17.837 18.238 17.9151 18.202 17.9812 18.136L18.4379 17.686C18.5881 17.536 18.7323 17.422 18.8706 17.35C19.0088 17.266 19.147 17.224 19.2972 17.224C19.4114 17.224 19.5315 17.248 19.6637 17.302C19.7959 17.356 19.9342 17.434 20.0844 17.536L22.0734 18.946C22.2296 19.054 22.3378 19.18 22.4039 19.33C22.4639 19.48 22.5 19.63 22.5 19.798Z" stroke="#C0C5C9" stroke-width="1.5" stroke-miterlimit="10"/>
</svg>
