<svg width="33" height="32" viewBox="0 0 33 32" fill="none" xmlns="http://www.w3.org/2000/svg">
<path fill-rule="evenodd" clip-rule="evenodd" d="M5.70743 7.87394C4.75355 8.82782 4.16699 10.2274 4.16699 12.0002V20.0002C4.16699 21.7729 4.75355 23.1725 5.70743 24.1264C6.66132 25.0803 8.06091 25.6668 9.83366 25.6668H23.167C24.9397 25.6668 26.3393 25.0803 27.2932 24.1264C28.2471 23.1725 28.8337 21.7729 28.8337 20.0002V12.0002C28.8337 10.2274 28.2471 8.82782 27.2932 7.87394C26.3393 6.92005 24.9397 6.3335 23.167 6.3335H9.83366C8.06091 6.3335 6.66132 6.92005 5.70743 7.87394ZM4.29322 6.45972C5.67266 5.08028 7.60641 4.3335 9.83366 4.3335H23.167C25.3942 4.3335 27.328 5.08028 28.7074 6.45972C30.0869 7.83917 30.8337 9.77291 30.8337 12.0002V20.0002C30.8337 22.2274 30.0869 24.1612 28.7074 25.5406C27.328 26.92 25.3942 27.6668 23.167 27.6668H9.83366C7.60641 27.6668 5.67266 26.92 4.29322 25.5406C2.91377 24.1612 2.16699 22.2274 2.16699 20.0002V12.0002C2.16699 9.77291 2.91377 7.83917 4.29322 6.45972Z" fill="#C0C5C9"/>
<path fill-rule="evenodd" clip-rule="evenodd" d="M14.4066 13.4553C14.353 13.5802 14.3003 13.7965 14.3003 14.1335V18.1335C14.3003 18.6465 14.479 18.7719 14.5 18.784C14.5129 18.7914 14.7093 18.8953 15.1858 18.6093L18.4969 16.6227C18.8983 16.3494 18.9337 16.1302 18.9337 16.0668C18.9337 16.0035 18.8983 15.7842 18.4969 15.511L15.1858 13.5243C14.9399 13.3768 14.7561 13.3215 14.6406 13.3072C14.5848 13.3004 14.5491 13.3035 14.5298 13.3069C14.5116 13.3101 14.5035 13.3144 14.5 13.3163C14.4966 13.3183 14.4871 13.3243 14.4723 13.3418C14.4569 13.3601 14.4326 13.3949 14.4066 13.4553ZM13.5006 11.584C14.3862 11.0731 15.4023 11.3218 16.2148 11.8093L19.5482 13.8093C19.5618 13.8175 19.5752 13.826 19.5884 13.8348C20.3701 14.3559 20.9337 15.1311 20.9337 16.0668C20.9337 17.0025 20.3701 17.7777 19.5884 18.2989C19.5752 18.3077 19.5618 18.3162 19.5482 18.3243L16.2148 20.3243C15.358 20.8384 14.3545 21.009 13.5006 20.5163C12.6549 20.0285 12.3003 19.0871 12.3003 18.1335V14.1335C12.3003 13.1092 12.6168 12.0939 13.5006 11.584Z" fill="#C0C5C9"/>
</svg>
