<svg width="16" height="16" viewBox="0 0 16 16" fill="none" xmlns="http://www.w3.org/2000/svg">
<path d="M7.5 11.3333C7.5 11.6095 7.72386 11.8333 8 11.8333C8.27614 11.8333 8.5 11.6095 8.5 11.3333H7.5ZM8.5 11.3286C8.5 11.0524 8.27614 10.8286 8 10.8286C7.72386 10.8286 7.5 11.0524 7.5 11.3286H8.5ZM7.49999 9.90476C7.49999 10.1809 7.72385 10.4048 7.99999 10.4048C8.27613 10.4048 8.49999 10.1809 8.49999 9.90476H7.49999ZM5.61671 5.8434C5.53022 6.10565 5.67271 6.38836 5.93496 6.47484C6.19721 6.56133 6.47991 6.41885 6.5664 6.1566L5.61671 5.8434ZM8.5 11.3333V11.3286H7.5V11.3333H8.5ZM9.49999 6.57143C9.49999 6.87127 9.41595 7.03994 9.30464 7.17245C9.16857 7.33444 8.98732 7.45412 8.70937 7.65266C8.4536 7.83535 8.13761 8.07331 7.89579 8.43795C7.64661 8.81371 7.49999 9.28497 7.49999 9.90476H8.49999C8.49999 9.45312 8.60338 9.18034 8.72919 8.99062C8.86238 8.78978 9.04638 8.64084 9.29061 8.46639C9.51267 8.30778 9.83142 8.10008 10.0703 7.81564C10.334 7.50172 10.5 7.10492 10.5 6.57143H9.49999ZM7.99999 5.16667C8.85169 5.16667 9.49999 5.81831 9.49999 6.57143H10.5C10.5 5.22061 9.35744 4.16667 7.99999 4.16667V5.16667ZM6.5664 6.1566C6.75147 5.5954 7.31319 5.16667 7.99999 5.16667V4.16667C6.89573 4.16667 5.94134 4.85904 5.61671 5.8434L6.5664 6.1566ZM13.5 8C13.5 11.0376 11.0376 13.5 8 13.5V14.5C11.5899 14.5 14.5 11.5899 14.5 8H13.5ZM8 13.5C4.96243 13.5 2.5 11.0376 2.5 8H1.5C1.5 11.5899 4.41015 14.5 8 14.5V13.5ZM2.5 8C2.5 4.96243 4.96243 2.5 8 2.5V1.5C4.41015 1.5 1.5 4.41015 1.5 8H2.5ZM8 2.5C11.0376 2.5 13.5 4.96243 13.5 8H14.5C14.5 4.41015 11.5899 1.5 8 1.5V2.5Z" fill="#606971"/>
</svg>
