<svg width="190" height="189" viewBox="0 0 190 189" fill="none" xmlns="http://www.w3.org/2000/svg">
<rect x="0.5" width="189" height="189" rx="94.5" fill="#F4F4F4"/>
<g clip-path="url(#clip0_17440_371962)">
<path fill-rule="evenodd" clip-rule="evenodd" d="M65.2987 107.213C68.2336 107.273 74.4662 109.264 76.3281 111.531C77.2493 112.651 77.9168 113.958 78.2845 115.362C78.6522 116.765 78.7115 118.231 78.4583 119.66C76.2755 126.266 74.8186 135.302 75.3025 138.476C75.8837 142.331 69.3091 149.164 65.4565 148.611C61.6038 148.059 58.7583 145.679 57.6222 141.953C56.0785 133.414 59.5604 117.932 65.2987 107.213Z" fill="#BCBEC0" stroke="#424142" stroke-miterlimit="22.93"/>
<path fill-rule="evenodd" clip-rule="evenodd" d="M79.9282 108.725C78.5659 102.771 67.1762 99.8913 64.0178 106.905C62.8756 109.435 61.8781 112.028 61.0303 114.671C66.1874 119.909 72.1623 121.216 78.0005 121.508C80.0228 117.9 80.746 112.291 79.9282 108.725Z" fill="#F26B41" stroke="#912B1E" stroke-miterlimit="10"/>
<path fill-rule="evenodd" clip-rule="evenodd" d="M78.0004 121.514C79.815 111.368 76.8302 105.189 69.0459 102.979C80.0158 102.898 83.0006 109.076 78.0004 121.514Z" fill="#E05526"/>
<path d="M79.9282 108.725C78.5659 102.771 67.1762 99.8913 64.0178 106.905C62.8756 109.435 61.8781 112.028 61.0303 114.671C66.1874 119.909 72.1623 121.216 78.0005 121.508C80.0228 117.9 80.746 112.291 79.9282 108.725Z" stroke="#912B1E" stroke-miterlimit="22.93"/>
<path fill-rule="evenodd" clip-rule="evenodd" d="M57.625 141.953C58.5901 145.227 59.9314 147.738 61.22 148.685C62.9057 149.929 63.8656 149.853 65.0227 148.948C66.2797 147.978 66.1956 146.292 65.646 145.143C65.0963 143.993 65.1726 144.464 65.0148 143.788" fill="#BCBEC0"/>
<path d="M57.2431 142.058C57.6778 143.607 58.2755 145.105 59.0262 146.528C59.5837 147.549 60.2622 148.517 61.2273 149.187C62.3003 149.934 63.5205 150.342 64.725 149.65C65.281 149.353 65.7376 148.9 66.0382 148.346C66.3388 147.792 66.4702 147.162 66.416 146.534C66.3457 145.831 66.1299 145.15 65.7822 144.535C65.698 144.375 65.606 144.217 65.5192 144.064C65.4587 143.972 65.5192 144.122 65.4903 143.999C65.4613 143.875 65.4377 143.796 65.414 143.693C65.2983 143.199 64.5383 143.409 64.654 143.904C64.8197 144.619 65.3246 145.185 65.5218 145.897C65.819 146.962 65.5981 148.088 64.6619 148.751C64.2955 149.045 63.8433 149.213 63.3733 149.229C62.7789 149.216 62.2214 148.885 61.7428 148.561C60.896 147.991 60.3148 147.16 59.8177 146.281C59.046 144.876 58.4363 143.388 58.0005 141.845C57.8559 141.361 57.0932 141.582 57.2379 142.058H57.2431Z" fill="#434143"/>
<path fill-rule="evenodd" clip-rule="evenodd" d="M63.3838 143.767C63.6073 146.173 64.1412 147.993 66.0373 149.442C67.702 150.715 68.9301 150.3 70.0819 149.405C71.339 148.435 71.2548 146.749 70.7052 145.6C70.1556 144.451 69.4534 142.92 69.3088 142.244" fill="#BCBEC0"/>
<path d="M62.9978 143.767C63.1241 145.098 63.345 146.442 63.9761 147.636C64.6246 148.884 65.6833 149.872 66.9741 150.431C68.2233 150.923 69.4646 150.447 70.4455 149.629C71.4264 148.811 71.6684 147.394 71.3449 146.181C71.1477 145.448 70.7453 144.764 70.435 144.078C70.1267 143.458 69.8758 142.812 69.6855 142.147C69.5645 141.655 68.8045 141.863 68.9255 142.358C69.1884 143.488 69.7907 144.58 70.2877 145.626C70.719 146.531 70.9162 147.638 70.3587 148.54C69.8327 149.395 68.5915 150.039 67.5921 149.803C66.4324 149.54 65.3989 148.504 64.8045 147.507C64.1313 146.381 63.9078 145.061 63.7842 143.772C63.7368 143.268 62.9479 143.262 62.9952 143.772L62.9978 143.767Z" fill="#434143"/>
<path fill-rule="evenodd" clip-rule="evenodd" d="M69.1905 142.058C68.9775 144.385 70.3818 146.189 71.5784 147.252C73.1563 148.643 74.4712 148.109 75.6231 147.215C76.8801 146.244 77.6796 144.267 76.4567 143.17C74.9972 141.855 74.7763 141.356 74.9998 140.564" fill="#BCBEC0"/>
<path d="M68.7959 142.058C68.7028 143.496 69.1251 144.921 69.9872 146.076C70.7367 147.128 71.8044 148.283 73.143 148.469C74.3974 148.646 75.7044 147.867 76.4934 146.936C77.2823 146.005 77.8293 144.593 77.1824 143.439C76.8116 142.776 76.0936 142.387 75.6387 141.774C75.5027 141.628 75.407 141.45 75.3609 141.256C75.3148 141.063 75.3199 140.86 75.3757 140.669C75.4001 140.57 75.3848 140.464 75.3329 140.376C75.281 140.287 75.1967 140.223 75.0978 140.195C74.9989 140.168 74.8933 140.18 74.8033 140.229C74.7132 140.279 74.646 140.361 74.6157 140.459C74.3711 141.353 74.7708 142.037 75.3757 142.684C75.7754 143.107 76.3803 143.473 76.5828 144.041C76.7312 144.569 76.669 145.135 76.4092 145.619C75.9464 146.586 74.9312 147.483 73.853 147.678C72.638 147.899 71.6413 146.889 70.9313 146.021C69.9743 144.93 69.4883 143.504 69.5796 142.055C69.6164 141.55 68.8274 141.553 68.7906 142.055L68.7959 142.058Z" fill="#434143"/>
<path fill-rule="evenodd" clip-rule="evenodd" d="M67.9598 127.134C61.2538 131.105 60.812 134.471 59.9915 137.39C58.7949 141.645 56.8751 149.513 61.5536 151.036C65.1486 152.209 85.8768 155.709 99.2363 156.083C112.596 156.456 121.684 154.983 123.168 151.378C124.651 147.772 123.065 132.036 119.123 130.339C115.181 128.643 74.1241 123.483 67.9598 127.134Z" fill="#BCBEC0"/>
<path d="M60.323 150.368C59.3237 148.94 59.0081 147.178 58.9765 145.466C58.9724 143.634 59.1806 141.807 59.5972 140.022C59.7839 139.168 59.9995 138.318 60.231 137.474C60.2554 137.374 60.24 137.269 60.1882 137.181C60.1363 137.092 60.052 137.027 59.9531 137C59.8542 136.973 59.7486 136.985 59.6585 137.034C59.5685 137.083 59.5012 137.166 59.471 137.264C58.9965 138.922 58.6362 140.611 58.3927 142.318C58.1297 144.198 58.0561 146.145 58.4716 148.012C58.6774 148.998 59.075 149.935 59.6419 150.768C59.9312 151.178 60.6149 150.786 60.323 150.368Z" fill="#434143"/>
<path d="M122.311 153.371C123.455 151.893 123.917 150.066 124.06 148.227C124.172 146.317 124.055 144.4 123.712 142.518C123.565 141.611 123.381 140.709 123.186 139.809C123.076 139.315 122.313 139.523 122.426 140.02C122.796 141.609 123.061 143.221 123.221 144.845C123.384 146.642 123.394 148.496 122.939 150.252C122.72 151.178 122.314 152.049 121.748 152.814C121.443 153.208 121.998 153.771 122.308 153.371H122.311Z" fill="#434143"/>
<path fill-rule="evenodd" clip-rule="evenodd" d="M96.5593 97.798C72.812 92.9328 67.2578 100.954 58.1797 142.794C81.8323 151.173 102.308 149.645 124.496 148.506C121.808 112.951 120.422 102.687 96.5593 97.798Z" fill="#F26B41"/>
<path fill-rule="evenodd" clip-rule="evenodd" d="M95.886 120.675C83.823 118.203 75.1104 112.933 68.7988 107.602C68.7988 107.602 71.3761 103.415 74.0585 101.356C82.232 95.076 80.3253 86.8026 97.8715 90.3976C115.418 93.9925 114.124 102.495 118.266 111.928C118.936 113.453 121.585 118.621 120.99 118.976C113.863 123.197 108.817 123.323 95.886 120.675Z" fill="#E05526"/>
<path d="M96.5593 97.7979C72.812 92.9327 66.511 102.645 58.1797 142.794C81.096 151.196 102.308 149.645 124.496 148.506C121.808 112.951 120.422 102.687 96.5593 97.7979Z" stroke="#912B1E" stroke-miterlimit="22.93"/>
<path fill-rule="evenodd" clip-rule="evenodd" d="M93.4172 114.75C96.3363 114.442 102.769 115.638 104.902 117.656C105.956 118.653 106.781 119.866 107.321 121.213C107.862 122.559 108.104 124.007 108.031 125.456C106.693 132.293 106.374 141.429 107.242 144.519C108.294 148.272 102.648 155.87 98.7478 155.806C94.8478 155.743 91.7367 153.734 90.1404 150.176C87.5448 141.897 89.0648 126.1 93.4172 114.75Z" fill="#BCBEC0" stroke="#424142" stroke-miterlimit="22.93"/>
<path fill-rule="evenodd" clip-rule="evenodd" d="M108.12 114.421C106.016 108.685 94.3631 107.252 92.1067 114.605C91.2892 117.258 90.6236 119.955 90.1133 122.684C95.8831 127.236 101.976 127.788 107.807 127.349C109.361 123.512 109.377 117.858 108.12 114.421Z" fill="#F26B41" stroke="#912B1E" stroke-miterlimit="10"/>
<path fill-rule="evenodd" clip-rule="evenodd" d="M107.807 127.349C108.333 117.056 104.595 111.299 96.5938 110.079C107.476 108.627 111.214 114.384 107.807 127.349Z" fill="#E05526"/>
<path d="M108.12 114.421C106.016 108.685 94.3631 107.252 92.1067 114.605C91.2892 117.258 90.6236 119.955 90.1133 122.684C95.8831 127.236 101.976 127.788 107.807 127.349C109.361 123.512 109.377 117.858 108.12 114.421Z" stroke="#912B1E" stroke-miterlimit="22.93"/>
<path fill-rule="evenodd" clip-rule="evenodd" d="M90.1455 150.176C91.5104 153.303 93.1567 155.628 94.5557 156.417C96.3834 157.44 97.3249 157.245 98.3637 156.214C99.4893 155.094 99.1947 153.432 98.5057 152.361C97.8167 151.291 97.9508 151.749 97.7168 151.096" fill="#BCBEC0"/>
<path d="M89.803 150.368C90.4148 151.815 91.1782 153.193 92.0805 154.478C92.73 155.378 93.4795 156.264 94.4683 156.801C95.5729 157.4 96.8562 157.787 97.9818 157.024C98.5364 156.674 98.9726 156.166 99.2335 155.564C99.4944 154.963 99.5677 154.297 99.444 153.653C99.2975 152.95 98.9966 152.289 98.563 151.717C98.4499 151.557 98.3158 151.407 98.2001 151.249C98.2684 151.344 98.2001 151.223 98.1711 151.183C98.1422 151.144 98.1212 151.06 98.0896 150.97C97.916 150.497 97.1534 150.707 97.3296 151.181C97.5926 151.88 98.1501 152.375 98.4473 153.064C98.6794 153.569 98.7702 154.128 98.7102 154.681C98.6125 155.264 98.3001 155.789 97.8345 156.154C97.5129 156.461 97.0946 156.647 96.6511 156.68C96.0422 156.655 95.4499 156.474 94.9312 156.154C94.0896 155.655 93.3706 154.974 92.8273 154.16C91.8993 152.853 91.1171 151.448 90.4947 149.971C90.2922 149.513 89.6111 149.913 89.8136 150.373L89.803 150.368Z" fill="#434143"/>
<path fill-rule="evenodd" clip-rule="evenodd" d="M96.0859 151.257C96.6119 153.624 97.364 155.354 99.4284 156.556C101.238 157.608 102.4 157.045 103.436 156.014C104.562 154.894 104.267 153.232 103.578 152.162C102.889 151.091 102 149.658 101.761 149.006" fill="#BCBEC0"/>
<path d="M95.7043 151.36C95.9831 152.603 96.3565 153.868 97.0876 154.931C97.8549 156.071 98.9759 156.926 100.278 157.366C101.564 157.758 102.726 157.258 103.652 156.356C104.633 155.399 104.798 153.989 104.312 152.743C103.786 151.373 102.671 150.281 102.142 148.901C101.963 148.43 101.201 148.638 101.382 149.111C101.8 150.205 102.505 151.215 103.131 152.191C103.707 153.093 104.088 154.266 103.515 155.27C102.989 156.183 101.84 156.901 100.777 156.68C99.6385 156.443 98.5471 155.596 97.866 154.671C97.1034 153.637 96.7431 152.385 96.4643 151.149C96.3539 150.655 95.5938 150.865 95.7043 151.36Z" fill="#434143"/>
<path fill-rule="evenodd" clip-rule="evenodd" d="M101.632 148.835C101.711 151.173 103.331 152.78 104.651 153.689C106.379 154.875 107.623 154.179 108.659 153.148C109.784 152.027 110.331 149.966 108.982 149.029C107.37 147.912 107.089 147.438 107.212 146.626" fill="#BCBEC0"/>
<path d="M101.238 148.835C101.317 150.268 101.898 151.627 102.879 152.674C103.742 153.632 104.983 154.657 106.316 154.705C107.602 154.749 108.804 153.774 109.485 152.756C110.135 151.78 110.498 150.329 109.783 149.287C109.199 148.438 107.416 147.949 107.592 146.731C107.616 146.632 107.603 146.527 107.554 146.437C107.505 146.347 107.425 146.279 107.329 146.245C107.228 146.218 107.12 146.232 107.029 146.283C106.938 146.335 106.871 146.42 106.842 146.521C106.768 146.902 106.811 147.297 106.966 147.654C107.195 148.07 107.514 148.43 107.9 148.706C108.365 149.079 109.017 149.374 109.267 149.947C109.443 150.43 109.443 150.959 109.267 151.441C109.096 151.972 108.811 152.46 108.431 152.869C108.051 153.278 107.586 153.598 107.069 153.808C105.862 154.231 104.718 153.353 103.884 152.564C102.832 151.575 102.109 150.302 102.043 148.845C102.022 148.34 101.233 148.338 101.254 148.845L101.238 148.835Z" fill="#434143"/>
<path d="M131.935 91.3514C138.826 72.5005 126.795 50.7789 105.063 42.8348C83.3313 34.8907 60.1279 43.7323 53.237 62.5831C46.346 81.434 58.3769 103.156 80.1088 111.1C101.841 119.044 125.044 110.202 131.935 91.3514Z" fill="#BCBEC0"/>
<path fill-rule="evenodd" clip-rule="evenodd" d="M51.9524 67.0632C54.7137 66.0718 58.9424 65.2224 65.325 67.4682C78.4505 72.0888 80.6648 79.2472 87.8941 101.393C88.4596 103.123 90.0822 113.661 88.3623 113.264C45.3252 103.373 51.9524 67.0632 51.9524 67.0632Z" fill="#E6E7E8"/>
<path fill-rule="evenodd" clip-rule="evenodd" d="M75.6208 109.093C73.914 108.38 65.3855 97.4691 65.9088 95.6334C72.6938 71.9203 104.304 78.5265 114.24 83.3206C121.777 86.9577 130.282 95.1154 130.282 95.1154C130.282 95.1154 114.605 125.385 75.6208 109.093Z" fill="#E6E7E8"/>
<path fill-rule="evenodd" clip-rule="evenodd" d="M110.398 45.1593C107.123 43.2053 102.992 42.3875 102.992 42.3875C102.137 43.8207 104.031 46.7082 107.305 48.6622C110.579 50.6162 114.734 50.3795 115.576 48.9252C115.989 48.2283 113.672 47.1159 110.398 45.1593Z" fill="#808285"/>
<path fill-rule="evenodd" clip-rule="evenodd" d="M92.7146 40.2706C95.0522 40.4674 97.3747 40.8143 99.6678 41.3094C99.5311 42.9714 96.3385 44.0655 92.5384 43.7525C88.7383 43.4396 85.9007 41.8433 85.9033 40.1786C85.9033 39.6526 88.9118 39.9577 92.7146 40.2706Z" fill="#808285"/>
<path d="M131.935 91.3514C138.826 72.5005 126.795 50.7789 105.063 42.8348C83.3313 34.8907 60.1279 43.7323 53.237 62.5831C46.346 81.434 58.3769 103.156 80.1088 111.1C101.841 119.044 125.044 110.202 131.935 91.3514Z" stroke="#424142" stroke-miterlimit="22.93"/>
<path fill-rule="evenodd" clip-rule="evenodd" d="M61.7749 49.9299C65.3412 50.3377 68.9493 49.703 72.1624 48.1025C75.3754 46.5021 78.0557 44.0045 79.8786 40.9122C75.6708 38.669 71.2475 32.5836 68.0601 31.934C63.5237 31.0109 54.7322 42.5453 61.7749 49.9299Z" fill="#BCBEC0" stroke="#BCBEC0" stroke-width="1.5" stroke-miterlimit="22.93"/>
<path d="M80.0756 40.5704C77.2906 39.0767 75.0947 36.6415 72.7752 34.5534C71.7653 33.6461 70.7108 32.7125 69.5063 32.0735C68.7054 31.5941 67.7627 31.4082 66.8397 31.5475C64.8673 31.8973 63.1579 33.4804 61.9509 34.9821C60.3404 36.9323 59.2776 39.2758 58.8713 41.7723C58.6571 43.0976 58.714 44.4526 59.0385 45.7554C59.3631 47.0581 59.9486 48.2815 60.7595 49.3514C60.991 49.6512 61.2355 49.9352 61.4959 50.2113C61.8457 50.5822 62.4032 50.022 62.0534 49.6538C61.1666 48.7258 60.4862 47.6206 60.0569 46.4109C59.6277 45.2012 59.4594 43.9143 59.563 42.6348C59.7444 40.2522 60.7385 37.9538 62.1349 36.0366C63.2316 34.5297 64.7648 32.9624 66.6056 32.4232C67.3256 32.1927 68.1072 32.2531 68.7831 32.5915C69.9218 33.1175 70.908 33.9591 71.8442 34.7796C74.3689 36.9965 76.6884 39.6474 79.6811 41.2542C80.1282 41.4909 80.5279 40.8097 80.0782 40.5704H80.0756Z" fill="#414042"/>
<path fill-rule="evenodd" clip-rule="evenodd" d="M66.5031 47.613C70.1849 47.499 72.6507 46.3533 73.9008 44.1758C72.102 42.8083 70.866 40.5414 69.2828 39.4421C66.9028 37.7906 61.9772 43.3527 66.5031 47.613Z" fill="#E6E7E8"/>
<path d="M74.1218 43.7736C72.9989 42.9136 72.1916 41.6697 71.2474 40.6178C70.4743 39.7684 69.3592 38.6323 68.0917 38.6954C67.2764 38.7348 66.4717 39.4475 65.9378 39.9972C65.0742 40.8568 64.5052 41.9681 64.3126 43.1713C64.0496 44.9886 64.9701 46.6085 66.2508 47.8314C66.619 48.1812 67.1765 47.6263 66.8083 47.2739C65.7564 46.2772 64.9543 44.9991 65.0647 43.5053C65.1809 42.4527 65.6434 41.4684 66.3796 40.7072C66.6774 40.3742 67.0158 40.08 67.3869 39.8315C67.5304 39.7305 67.6827 39.6424 67.8418 39.5685C67.8817 39.5494 67.923 39.5336 67.9654 39.5212C67.9996 39.5212 68.189 39.4738 68.0811 39.4843C68.5335 39.4396 69.0016 39.7 69.3619 39.9419C69.8782 40.3158 70.3471 40.7512 70.7583 41.2384C71.7313 42.3193 72.5702 43.5553 73.7326 44.4468C74.1376 44.7545 74.5216 44.0681 74.1324 43.7631L74.1218 43.7736Z" fill="#414042"/>
<path fill-rule="evenodd" clip-rule="evenodd" d="M129.871 73.3827C126.677 71.2576 124.167 68.2515 122.647 64.7286C121.126 61.2058 120.661 57.3176 121.306 53.5354C126.303 54.6136 134.097 52.686 137.148 54.3533C141.482 56.7201 140.719 72.2019 129.871 73.3827Z" fill="#BCBEC0" stroke="#BCBEC0" stroke-width="1.5" stroke-miterlimit="22.93"/>
<path d="M121.201 53.914C124.832 54.6845 128.622 54.0875 132.291 54.0349C133.719 54.0165 135.333 53.9771 136.675 54.5609C137.342 54.8599 137.885 55.3814 138.21 56.0362C139.162 57.7325 139.325 59.9231 139.186 61.8639C139.036 64.2675 138.275 66.593 136.974 68.6199C136.19 69.8303 135.146 70.8503 133.918 71.6056C132.689 72.3608 131.308 72.8322 129.874 72.9854C129.374 73.0407 129.369 73.8296 129.874 73.7744C131.244 73.6373 132.574 73.2313 133.788 72.5797C135.001 71.9281 136.074 71.0436 136.945 69.9769C138.529 67.9488 139.533 65.5295 139.851 62.9763C140.151 60.8067 140.099 58.4425 139.252 56.4018C138.947 55.5844 138.436 54.8596 137.769 54.2979C136.761 53.509 135.365 53.3617 134.131 53.2881C130.313 53.0619 126.487 53.793 122.671 53.3643C122.247 53.317 121.829 53.2486 121.414 53.1618C120.914 53.0593 120.704 53.8193 121.201 53.9245V53.914Z" fill="#414042"/>
<path fill-rule="evenodd" clip-rule="evenodd" d="M128.046 68.3911C125.124 65.7613 123.896 63.1254 124.365 60.4833C126.768 60.6148 129.348 59.6075 131.402 59.8022C134.492 60.0914 134.679 68.0309 128.046 68.3911Z" fill="#E6E7E8"/>
<path d="M124.398 60.8121C126.163 60.8962 127.901 60.3098 129.658 60.1546C130.405 60.0889 131.236 60.0521 131.938 60.365C132.114 60.4367 132.272 60.5483 132.398 60.6911C132.319 60.6017 132.427 60.7358 132.448 60.7726C132.469 60.8095 132.522 60.9068 132.556 60.9751C132.617 61.1108 132.669 61.2505 132.711 61.3933C132.769 61.587 132.816 61.7837 132.853 61.9824C132.929 62.4163 132.959 62.857 132.943 63.2973C132.93 64.321 132.603 65.3161 132.006 66.148C131.078 67.3709 129.547 67.8442 128.062 67.931C127.557 67.9599 127.554 68.7489 128.062 68.72C129.595 68.6305 131.154 68.194 132.251 67.0579C133.079 66.1626 133.585 65.0171 133.689 63.8022C133.812 62.8269 133.706 61.8365 133.379 60.9094C133.276 60.5818 133.102 60.281 132.869 60.0284C132.327 59.5024 131.472 59.3578 130.765 59.321C128.616 59.2184 126.544 60.1099 124.398 60.01C123.893 59.9916 123.893 60.7805 124.398 60.7989V60.8121Z" fill="#414042"/>
<path fill-rule="evenodd" clip-rule="evenodd" d="M103.468 52.6703C102.868 52.4336 102.353 51.9944 102.592 51.3816C103.344 49.454 106.866 51.0108 107.634 52.3626C108.304 53.5434 108.33 55.0213 107.712 56.4519C107.54 56.8181 107.262 57.1244 106.914 57.3315C106.567 57.5386 106.165 57.6371 105.761 57.6143C104.972 57.5486 104.417 56.9279 104.664 56.1968C105.154 54.7504 104.838 53.2146 103.468 52.6703Z" fill="#808285"/>
<path fill-rule="evenodd" clip-rule="evenodd" d="M100.759 50.8346C100.575 50.8669 100.404 50.952 100.268 51.0796C100.131 51.2072 100.035 51.3717 99.9906 51.5531C99.9461 51.7345 99.9553 51.9249 100.017 52.1012C100.079 52.2774 100.191 52.4318 100.339 52.5457C100.487 52.6595 100.665 52.7278 100.851 52.7422C101.037 52.7566 101.224 52.7165 101.388 52.6269C101.551 52.5372 101.686 52.4018 101.774 52.2372C101.862 52.0726 101.9 51.8859 101.884 51.6998C101.85 51.4359 101.712 51.1965 101.501 51.0343C101.29 50.8721 101.023 50.8002 100.759 50.8346Z" fill="#808285"/>
<path fill-rule="evenodd" clip-rule="evenodd" d="M113.709 53.2909C112.052 52.3021 110.358 52.0891 109.927 52.8123C109.496 53.5355 110.487 54.9161 112.144 55.9155C113.801 56.9148 115.494 57.1173 115.926 56.3941C116.357 55.6709 115.366 54.2797 113.709 53.2909Z" fill="#808285"/>
<path fill-rule="evenodd" clip-rule="evenodd" d="M85.1458 42.8452C87.0498 43.1582 88.4804 44.0865 88.3437 44.9202C88.2069 45.7538 86.5528 46.1746 84.6619 45.8616C82.7711 45.5487 81.3273 44.6204 81.464 43.7867C81.6008 42.953 83.2471 42.5454 85.1458 42.8452Z" fill="#808285"/>
<path fill-rule="evenodd" clip-rule="evenodd" d="M93.5191 49.0331C94.1319 49.2382 94.8051 49.2356 95.0208 48.6123C95.6887 46.6558 91.9938 45.5723 90.5369 46.1114C89.2614 46.5821 88.291 47.6893 87.8387 49.1856C87.7348 49.5765 87.7499 49.9895 87.882 50.3718C88.0141 50.7541 88.2573 51.0882 88.5803 51.3316C89.2325 51.7944 90.0504 51.6735 90.3344 50.9581C90.8919 49.5354 92.1201 48.5624 93.5191 49.0331Z" fill="#808285"/>
<path fill-rule="evenodd" clip-rule="evenodd" d="M96.7746 49.3828C96.8942 49.5261 96.9696 49.7011 96.9916 49.8864C97.0135 50.0718 96.9811 50.2595 96.8983 50.4268C96.8155 50.594 96.6858 50.7336 96.5251 50.8285C96.3643 50.9234 96.1795 50.9695 95.993 50.9612C95.8066 50.9529 95.6265 50.8906 95.4748 50.7818C95.3232 50.6731 95.2064 50.5225 95.1387 50.3486C95.071 50.1746 95.0554 49.9847 95.0937 49.8021C95.1321 49.6194 95.2227 49.4518 95.3545 49.3197C95.4519 49.2305 95.5659 49.1614 95.6899 49.1163C95.814 49.0712 95.9458 49.051 96.0777 49.0569C96.2095 49.0628 96.339 49.0946 96.4586 49.1505C96.5782 49.2064 96.6856 49.2853 96.7746 49.3828Z" fill="#808285"/>
<path fill-rule="evenodd" clip-rule="evenodd" d="M101.919 53.0778C100.849 53.1672 100.049 54.0351 100.131 55.0107C100.212 55.9864 101.148 56.707 102.216 56.6176C103.284 56.5281 104.086 55.6603 104.004 54.6846C103.923 53.709 102.992 52.9884 101.919 53.0778Z" fill="#808285"/>
<path fill-rule="evenodd" clip-rule="evenodd" d="M94.5398 50.3796C95.2998 51.1396 95.3524 52.3152 94.6581 53.0094C93.9638 53.7037 92.7883 53.6485 92.0283 52.8911C91.2683 52.1337 91.2157 50.9555 91.9099 50.2613C92.6042 49.567 93.7824 49.6196 94.5398 50.3796Z" fill="#808285"/>
<path d="M101.829 48.6089C102.061 47.9732 101.267 47.0985 100.054 46.6552C98.8412 46.2119 97.6697 46.3679 97.4374 47.0035C97.205 47.6392 97.9997 48.5139 99.2124 48.9572C100.425 49.4005 101.597 49.2446 101.829 48.6089Z" fill="#808285"/>
<path fill-rule="evenodd" clip-rule="evenodd" d="M80.8176 44.686C80.9372 44.8293 81.0126 45.0043 81.0346 45.1896C81.0565 45.375 81.0241 45.5627 80.9413 45.73C80.8585 45.8973 80.7288 46.0368 80.568 46.1317C80.4073 46.2266 80.2225 46.2727 80.036 46.2644C79.8495 46.2562 79.6695 46.1938 79.5178 46.0851C79.3661 45.9763 79.2493 45.8258 79.1817 45.6518C79.114 45.4778 79.0984 45.288 79.1367 45.1053C79.175 44.9226 79.2656 44.755 79.3975 44.6229C79.4948 44.5337 79.6088 44.4646 79.7329 44.4195C79.857 44.3745 79.9887 44.3543 80.1206 44.3601C80.2525 44.366 80.382 44.3978 80.5015 44.4537C80.6211 44.5096 80.7285 44.5886 80.8176 44.686Z" fill="#808285"/>
<path fill-rule="evenodd" clip-rule="evenodd" d="M119.26 57.3196C119.076 57.3519 118.905 57.4371 118.769 57.5647C118.632 57.6923 118.536 57.8568 118.492 58.0382C118.447 58.2195 118.456 58.41 118.518 58.5862C118.58 58.7624 118.692 58.9169 118.84 59.0307C118.988 59.1445 119.166 59.2128 119.352 59.2272C119.538 59.2416 119.725 59.2016 119.888 59.1119C120.052 59.0222 120.187 58.8869 120.275 58.7222C120.363 58.5576 120.401 58.3709 120.385 58.1848C120.35 57.9212 120.212 57.6823 120.001 57.5202C119.79 57.3581 119.524 57.286 119.26 57.3196Z" fill="#808285"/>
<path fill-rule="evenodd" clip-rule="evenodd" d="M63.9386 57.943C64.5513 58.1482 65.2246 58.1455 65.4402 57.5223C66.1082 55.5657 62.4133 54.4822 60.9695 55.0213C59.6941 55.492 58.7237 56.5992 58.2713 58.0956C58.1674 58.4864 58.1825 58.8994 58.3146 59.2817C58.4467 59.664 58.6899 59.9982 59.0129 60.2415C59.6651 60.7043 60.483 60.5834 60.7644 59.8681C61.3088 58.4453 62.5395 57.4723 63.9386 57.943Z" fill="#808285"/>
<path fill-rule="evenodd" clip-rule="evenodd" d="M57.8382 60.5308C57.9356 60.6198 58.0146 60.7272 58.0705 60.8468C58.1264 60.9664 58.1582 61.0958 58.1641 61.2277C58.1699 61.3596 58.1498 61.4914 58.1047 61.6154C58.0596 61.7395 57.9905 61.8535 57.9013 61.9509C57.7041 62.1296 57.4442 62.2233 57.1783 62.2115C56.9123 62.1997 56.6618 62.0833 56.4812 61.8877C56.3837 61.7987 56.3048 61.6913 56.2489 61.5717C56.193 61.4521 56.1611 61.3227 56.1553 61.1908C56.1494 61.0589 56.1696 60.9271 56.2147 60.803C56.2598 60.679 56.3289 60.565 56.4181 60.4676C56.5154 60.3785 56.6294 60.3094 56.7535 60.2643C56.8776 60.2192 57.0093 60.199 57.1412 60.2048C57.2731 60.2107 57.4025 60.2425 57.5221 60.2984C57.6417 60.3544 57.7491 60.4333 57.8382 60.5308Z" fill="#808285"/>
<path fill-rule="evenodd" clip-rule="evenodd" d="M126.006 80.641C125.406 80.4043 124.891 79.9651 125.13 79.3524C125.882 77.4274 129.404 78.9816 130.172 80.3333C130.842 81.5141 130.868 82.9921 130.25 84.4227C130.078 84.7889 129.8 85.0952 129.453 85.3023C129.105 85.5094 128.703 85.6079 128.299 85.5851C127.51 85.5193 126.955 84.8987 127.203 84.1676C127.692 82.7186 127.379 81.1827 126.006 80.641Z" fill="#808285"/>
<path fill-rule="evenodd" clip-rule="evenodd" d="M129.006 86.5528C128.822 86.5852 128.651 86.6703 128.515 86.7979C128.379 86.9255 128.282 87.09 128.238 87.2714C128.193 87.4528 128.202 87.6432 128.264 87.8194C128.326 87.9957 128.438 88.1501 128.586 88.2639C128.734 88.3777 128.912 88.446 129.098 88.4605C129.284 88.4749 129.471 88.4348 129.635 88.3451C129.798 88.2555 129.933 88.1201 130.021 87.9555C130.109 87.7908 130.147 87.6041 130.131 87.418C130.097 87.1541 129.959 86.9148 129.748 86.7526C129.537 86.5903 129.27 86.5185 129.006 86.5528Z" fill="#808285"/>
<path fill-rule="evenodd" clip-rule="evenodd" d="M74.5534 84.8249C75.3896 81.9321 77.5461 80.7145 79.5185 81.2878C81.4908 81.8611 82.5533 84.0202 81.717 86.9051C80.8807 89.79 78.8952 91.1654 76.9202 90.5868C74.9452 90.0083 73.7171 87.7072 74.5534 84.8249Z" fill="white"/>
<path fill-rule="evenodd" clip-rule="evenodd" d="M80.183 88.0228C78.4631 85.3509 77.9266 84.4016 78.7471 82.2846C79.5677 80.1676 80.4776 80.9697 83.5702 80.2465C88.5932 79.0578 93.0797 85.4377 91.4281 89.1879C89.3269 93.9847 85.1139 95.6677 80.183 88.0228Z" fill="white"/>
<path fill-rule="evenodd" clip-rule="evenodd" d="M75.3709 86.5737C70.8107 89.2772 65.9824 86.1819 67.5156 80.8854C68.3492 78.0084 73.125 74.9788 78.4188 78.2766C81.117 79.9545 81.6351 81.9584 80.8146 84.0807C79.9941 86.2029 77.1723 85.5034 75.3709 86.5737Z" fill="white"/>
<path fill-rule="evenodd" clip-rule="evenodd" d="M81.0095 79.8151C79.3553 76.3542 74.5375 78.9893 79.7314 83.0892C86.327 83.2233 84.423 78.3687 81.0095 79.8151Z" fill="#A686AA" stroke="black" stroke-miterlimit="22.93"/>
<path d="M79.7314 83.0894C79.3562 84.0396 78.9793 84.9881 78.6006 85.9348" stroke="black" stroke-miterlimit="22.93"/>
<path fill-rule="evenodd" clip-rule="evenodd" d="M68.7382 64.4807C69.1038 64.4807 69.3352 62.8397 72.6409 62.6135C75.6073 62.411 77.18 63.7864 78.4607 63.7049C80.0018 63.6076 80.7118 60.6044 79.602 60.8279C77.059 61.3539 75.5284 60.3309 73.1327 60.4939C71.6626 60.5938 70.445 60.7569 69.3641 61.8377C68.1912 63.0212 68.3017 64.4728 68.7382 64.4807Z" fill="black"/>
<path fill-rule="evenodd" clip-rule="evenodd" d="M103.313 76.9144C103.023 76.6909 103.873 75.2602 101.435 73.017C99.2468 71.0052 97.1614 71.0946 96.212 70.2294C95.0706 69.1775 96.3934 66.403 97.1193 67.2708C98.7839 69.259 100.609 69.4299 102.379 71.0578C103.462 72.0571 104.317 72.9381 104.483 74.4765C104.651 76.1176 103.657 77.18 103.313 76.9144Z" fill="black"/>
<path d="M73.5165 121.256L71.5178 120.501L70.5343 123.102L71.7308 123.544H71.7545C72.0727 123.67 72.2331 124.07 72.341 124.375L72.5434 123.849L72.8064 123.147L73.5165 121.256ZM75.2574 114.926L77.9188 120.388C77.9583 120.469 77.9808 120.558 77.9849 120.649C77.9889 120.739 77.9745 120.829 77.9425 120.914L76.0569 125.911C76.0257 125.994 75.9781 126.071 75.9171 126.136C75.8561 126.201 75.7827 126.254 75.7013 126.29C75.6199 126.327 75.532 126.347 75.4427 126.35C75.3534 126.352 75.2645 126.337 75.1812 126.305H75.1575L74.5684 126.061L72.7091 125.358L69.4481 124.125C69.3642 124.095 69.2871 124.048 69.2212 123.988C69.1554 123.928 69.1023 123.855 69.0648 123.774C69.0274 123.693 69.0064 123.605 69.0032 123.516C68.9999 123.427 69.0144 123.338 69.0458 123.254L70.5053 119.391C70.5366 119.308 70.5839 119.232 70.6446 119.168C70.7053 119.103 70.7782 119.051 70.8591 119.014C70.94 118.978 71.0273 118.958 71.116 118.955C71.2046 118.953 71.2929 118.968 71.3758 118.999L74.6368 120.233C74.7198 120.264 74.7959 120.311 74.8605 120.372C74.9252 120.433 74.9772 120.506 75.0137 120.587C75.0501 120.667 75.0701 120.755 75.0727 120.843C75.0753 120.932 75.0603 121.02 75.0286 121.103L73.8084 124.333L75.0365 124.798L76.5855 120.701L74.3396 116.086L69.6059 118.061L67.0971 124.704L73.1956 127.007L74.0793 127.341L74.7104 127.578C74.8781 127.641 75.0139 127.768 75.0879 127.931C75.1619 128.095 75.168 128.281 75.1049 128.448L74.8682 129.08L74.3054 128.867C74.2679 128.854 74.2311 128.84 74.195 128.824L74.0556 128.772L66.0083 125.732C65.9231 125.703 65.8446 125.657 65.7775 125.597C65.7103 125.537 65.6559 125.464 65.6174 125.383C65.5789 125.301 65.5571 125.213 65.5533 125.123C65.5496 125.033 65.5639 124.943 65.5955 124.859L68.4462 117.314C68.481 117.22 68.5365 117.136 68.6084 117.067C68.6803 116.997 68.7669 116.945 68.8617 116.914L74.4133 114.602C74.5699 114.539 74.7447 114.537 74.9027 114.597C75.0607 114.657 75.1902 114.775 75.2653 114.926H75.2574Z" fill="white"/>
<path d="M74.9109 87.7047C75.3658 87.0446 75.9628 86.4424 76.7518 86.2215C77.4459 86.0335 78.186 86.1221 78.8162 86.4687C79.35 86.8275 79.7372 87.3659 79.9075 87.9861C80.103 88.4911 80.1207 89.0476 79.9575 89.564C79.9302 89.6634 79.9423 89.7694 79.9913 89.8601C80.0403 89.9507 80.1224 90.0189 80.2205 90.0505C80.3198 90.0759 80.425 90.0629 80.5152 90.0141C80.6053 89.9654 80.6738 89.8845 80.707 89.7875C81.1357 88.7225 80.6334 87.305 79.9523 86.4608C79.0923 85.4089 77.4697 85.0854 76.2205 85.5824C75.3914 85.9493 74.6909 86.5556 74.2087 87.3234C73.9168 87.7415 74.6006 88.136 74.8872 87.7205L74.9109 87.7047Z" fill="black"/>
<path fill-rule="evenodd" clip-rule="evenodd" d="M72.646 76.0809C75.8018 75.7864 78.124 73.0671 77.8373 70.0323C77.5507 66.9975 74.7552 64.7569 71.6099 65.054C68.4646 65.3512 66.132 68.0547 66.416 71.1026C66.7 74.1506 69.5034 76.3754 72.646 76.0809Z" fill="black"/>
<path fill-rule="evenodd" clip-rule="evenodd" d="M71.9206 70.1979C73.367 69.8534 75.384 70.3557 75.1184 67.8837C74.9448 66.2479 72.2467 65.5168 70.2007 66.4872C68.2572 67.4208 67.4683 69.3695 68.0153 70.5845C69.0909 73.0013 70.4768 70.545 71.9206 70.1979Z" fill="white"/>
<path fill-rule="evenodd" clip-rule="evenodd" d="M72.873 74.7396C73.925 74.261 74.472 73.1276 74.0617 72.2203C73.6515 71.313 72.4496 70.9606 71.3872 71.4313C70.3247 71.9021 69.7882 73.0434 70.1985 73.9533C70.6088 74.8632 71.808 75.2183 72.873 74.7396Z" fill="white"/>
<path fill-rule="evenodd" clip-rule="evenodd" d="M75.7888 71.9361C75.9142 71.8531 76.0133 71.736 76.0743 71.5986C76.1354 71.4612 76.1559 71.3092 76.1335 71.1605C76.1111 71.0118 76.0466 70.8727 75.9478 70.7594C75.8489 70.6461 75.7197 70.5634 75.5754 70.5211C75.4311 70.4788 75.2777 70.4786 75.1333 70.5206C74.9889 70.5625 74.8595 70.6449 74.7603 70.7579C74.6611 70.871 74.5964 71.01 74.5736 71.1586C74.5508 71.3073 74.5709 71.4593 74.6317 71.5969C74.742 71.7934 74.9249 71.9389 75.1411 72.0023C75.3574 72.0657 75.5898 72.0419 75.7888 71.9361Z" fill="white"/>
<path fill-rule="evenodd" clip-rule="evenodd" d="M96.6145 84.4383C99.7703 84.1438 102.092 81.4245 101.806 78.3897C101.519 75.3549 98.7236 73.1143 95.5784 73.4115C92.4331 73.7086 90.1005 76.4252 90.3871 79.4601C90.6738 82.4949 93.4719 84.7329 96.6145 84.4383Z" fill="black"/>
<path fill-rule="evenodd" clip-rule="evenodd" d="M95.8892 78.5556C97.3356 78.2111 99.3527 78.7134 99.0871 76.2413C98.9135 74.6056 96.2153 73.8745 94.1693 74.8449C92.2259 75.7785 91.4422 77.7193 91.9839 78.9421C93.0569 81.3589 94.4454 78.9027 95.8892 78.5556Z" fill="white"/>
<path fill-rule="evenodd" clip-rule="evenodd" d="M96.8408 83.0973C97.9059 82.6187 98.4397 81.4852 98.0295 80.5779C97.6192 79.6706 96.4174 79.3182 95.355 79.789C94.2925 80.2597 93.756 81.4011 94.1663 82.311C94.5765 83.2209 95.7757 83.5707 96.8408 83.0973Z" fill="white"/>
<path fill-rule="evenodd" clip-rule="evenodd" d="M99.7546 80.2938C99.88 80.2108 99.9791 80.0937 100.04 79.9563C100.101 79.8189 100.122 79.6669 100.099 79.5182C100.077 79.3695 100.012 79.2303 99.9136 79.117C99.8147 79.0038 99.6855 78.9211 99.5412 78.8788C99.3969 78.8365 99.2435 78.8363 99.0991 78.8783C98.9547 78.9202 98.8253 79.0026 98.7261 79.1156C98.627 79.2286 98.5622 79.3677 98.5394 79.5163C98.5166 79.6649 98.5368 79.817 98.5975 79.9545C98.7078 80.151 98.8907 80.2965 99.1069 80.3599C99.3232 80.4233 99.5557 80.3996 99.7546 80.2938Z" fill="white"/>
</g>
<defs>
<clipPath id="clip0_17440_371962">
<rect width="89.1168" height="126" fill="white" transform="translate(50.9004 31.5)"/>
</clipPath>
</defs>
</svg>
